<svg id="Layer_3" data-name="Layer 3" xmlns="http://www.w3.org/2000/svg" viewBox="0 0 21.75 23.5"><defs><style>.cls-1{fill:#f2eee8}</style></defs><title>bus</title><path class="cls-1" d="M1163.11 1145.2h-19.75a1 1 0 0 1-1-1v-12.58a7 7 0 0 1 7-7h7.75a7 7 0 0 1 7 7v12.58a1 1 0 0 1-1 1zm-18.75-2h17.75v-11.58a5 5 0 0 0-5-5h-7.75a5 5 0 0 0-5 5v11.58z" transform="translate(-1142.36 -1124.61)"/><path class="cls-1" d="M1147.4 1148.11c-1.88 0-3-.61-3-1.63v-1.37a1 1 0 0 1 2 0v.89a4.75 4.75 0 0 0 2 0v-.89a1 1 0 0 1 2 0v1.37c0 1-1.12 1.63-3 1.63zm11.67 0c-1.88 0-3-.61-3-1.63v-1.37a1 1 0 0 1 2 0v.89a4.75 4.75 0 0 0 2 0v-.89a1 1 0 0 1 2 0v1.37c0 1-1.12 1.63-3 1.63zm-1-18.58h-9.67a1 1 0 0 1 0-2h9.67a1 1 0 0 1 0 2zm-9.59 8.67a1.5 1.5 0 1 0 1.5 1.5 1.5 1.5 0 0 0-1.5-1.5zm9.52 0a1.5 1.5 0 1 0 1.5 1.5 1.5 1.5 0 0 0-1.5-1.5zm2.11-.71h-13.75a1.5 1.5 0 0 1-1.5-1.5v-4.37a1.5 1.5 0 0 1 1.5-1.5h13.75a1.5 1.5 0 0 1 1.5 1.5v4.38a1.5 1.5 0 0 1-1.5 1.5zm-13.75-6.37a.5.5 0 0 0-.5.5v4.38a.5.5 0 0 0 .5.5h13.75a.5.5 0 0 0 .5-.5v-4.37a.5.5 0 0 0-.5-.5z" transform="translate(-1142.36 -1124.61)"/></svg>